<?xml version="1.0" standalone="no"?>
<!DOCTYPE svg PUBLIC "-//W3C//DTD SVG 20010904//EN"
 "http://www.w3.org/TR/2001/REC-SVG-20010904/DTD/svg10.dtd">
<svg version="1.0" xmlns="http://www.w3.org/2000/svg"
 width="1024.000000pt" height="1024.000000pt" viewBox="0 0 1024.000000 1024.000000"
 preserveAspectRatio="xMidYMid meet">

<g transform="translate(0.000000,1024.000000) scale(0.100000,-0.100000)"
fill="#000000" stroke="none">
<path d="M6813 7893 c20 -2 54 -2 75 0 20 2 3 4 -38 4 -41 0 -58 -2 -37 -4z"/>
<path d="M6938 7893 c7 -3 16 -2 19 1 4 3 -2 6 -13 5 -11 0 -14 -3 -6 -6z"/>
<path d="M7048 7883 c6 -2 18 -2 25 0 6 3 1 5 -13 5 -14 0 -19 -2 -12 -5z"/>
<path d="M6535 7870 c-25 -11 1 -11 35 0 20 6 21 8 5 8 -11 0 -29 -3 -40 -8z"/>
<path d="M7178 7863 c6 -2 18 -2 25 0 6 3 1 5 -13 5 -14 0 -19 -2 -12 -5z"/>
<path d="M7228 7853 c7 -3 16 -2 19 1 4 3 -2 6 -13 5 -11 0 -14 -3 -6 -6z"/>
<path d="M6398 7833 c7 -3 16 -2 19 1 4 3 -2 6 -13 5 -11 0 -14 -3 -6 -6z"/>
<path d="M6345 7820 c-13 -6 -15 -9 -5 -9 8 0 22 4 30 9 18 12 2 12 -25 0z"/>
<path d="M1924 7761 c-2 -2 -4 -809 -4 -1793 l0 -1788 315 0 315 0 2 1291 3
1292 41 -59 c23 -32 203 -291 401 -574 198 -283 433 -621 523 -750 90 -129
288 -413 439 -630 151 -217 302 -434 335 -482 l61 -88 303 0 302 0 0 1790 0
1790 -279 0 c-153 0 -293 3 -310 6 l-31 7 0 -1293 0 -1293 -48 69 c-214 307
-656 940 -1093 1564 -168 239 -383 548 -478 685 -96 138 -175 251 -176 253 -4
5 -616 8 -621 3z"/>
<path d="M6178 7754 c-38 -20 -36 -28 2 -9 17 9 30 18 30 20 0 7 -1 6 -32 -11z"/>
<path d="M7580 7725 c14 -8 30 -14 35 -14 6 0 -1 6 -15 14 -14 8 -29 14 -35
14 -5 0 1 -6 15 -14z"/>
<path d="M6065 7695 c-33 -19 -57 -35 -52 -35 9 0 117 60 117 66 0 6 -2 5 -65
-31z"/>
<path d="M7661 7687 c2 -1 13 -9 24 -17 19 -14 19 -14 6 3 -7 9 -18 17 -24 17
-6 0 -8 -1 -6 -3z"/>
<path d="M5963 7630 c-18 -11 -33 -22 -33 -25 0 -2 16 5 35 16 19 12 35 23 35
25 0 6 -3 5 -37 -16z"/>
<path d="M5845 7542 c-38 -32 -101 -92 -139 -133 -68 -73 -176 -211 -176 -225
0 -4 30 33 66 81 70 92 194 223 279 293 28 23 48 41 45 41 -3 1 -36 -25 -75
-57z"/>
<path d="M7850 7556 c0 -2 7 -7 16 -10 8 -3 12 -2 9 4 -6 10 -25 14 -25 6z"/>
<path d="M8010 7416 c0 -2 8 -10 18 -17 15 -13 16 -12 3 4 -13 16 -21 21 -21
13z"/>
<path d="M6705 7340 c-12 -5 1 -6 35 -3 30 3 57 7 59 9 9 8 -75 2 -94 -6z"/>
<path d="M6818 7343 c6 -2 18 -2 25 0 6 3 1 5 -13 5 -14 0 -19 -2 -12 -5z"/>
<path d="M6891 7346 c2 -2 40 -6 84 -8 45 -3 67 -2 50 2 -30 8 -142 13 -134 6z"/>
<path d="M6576 7314 c-72 -22 -52 -25 29 -4 39 11 59 19 45 19 -14 0 -47 -7
-74 -15z"/>
<path d="M7068 7323 c6 -2 18 -2 25 0 6 3 1 5 -13 5 -14 0 -19 -2 -12 -5z"/>
<path d="M7135 7311 c11 -4 34 -11 50 -14 l30 -6 -30 14 c-16 8 -39 14 -50 14
l-20 0 20 -8z"/>
<path d="M6428 7254 c-27 -13 -48 -27 -48 -29 0 -3 21 5 48 18 26 14 54 27 62
30 13 5 13 5 0 6 -8 0 -36 -11 -62 -25z"/>
<path d="M7260 7270 c20 -13 33 -13 25 0 -3 6 -14 10 -23 10 -15 0 -15 -2 -2
-10z"/>
<path d="M8049 7243 l-34 -38 38 34 c34 33 42 41 34 41 -2 0 -19 -17 -38 -37z"/>
<path d="M6319 7189 c-23 -19 -23 -20 -2 -10 12 6 25 16 28 21 10 16 -1 12
-26 -11z"/>
<path d="M7405 7203 c6 -5 35 -26 65 -47 50 -34 52 -34 20 -6 -31 28 -111 77
-85 53z"/>
<path d="M7990 7195 c-7 -9 -11 -18 -8 -20 3 -3 11 1 18 10 7 9 11 18 8 20 -3
3 -11 -1 -18 -10z"/>
<path d="M6269 7153 c-13 -16 -12 -17 4 -4 9 7 17 15 17 17 0 8 -8 3 -21 -13z"/>
<path d="M7950 7155 c-7 -9 -11 -17 -9 -20 3 -2 10 5 17 15 14 24 10 26 -8 5z"/>
<path d="M5500 7140 c-6 -11 -8 -20 -6 -20 3 0 10 9 16 20 6 11 8 20 6 20 -3
0 -10 -9 -16 -20z"/>
<path d="M7889 7093 l-34 -36 32 22 c34 23 48 39 41 47 -2 2 -20 -13 -39 -33z"/>
<path d="M6215 7112 c-5 -4 -21 -21 -35 -37 -22 -27 -21 -26 13 4 33 32 42 41
35 41 -2 0 -7 -4 -13 -8z"/>
<path d="M7530 7118 c0 -2 35 -35 78 -73 42 -38 64 -54 47 -36 -30 33 -125
116 -125 109z"/>
<path d="M5470 7090 c-6 -11 -8 -20 -6 -20 3 0 10 9 16 20 6 11 8 20 6 20 -3
0 -10 -9 -16 -20z"/>
<path d="M7809 7013 l-34 -37 32 25 c26 20 50 49 40 49 -2 0 -19 -17 -38 -37z"/>
<path d="M6122 7017 c-28 -29 -132 -189 -132 -202 0 -5 12 10 27 35 22 37 82
123 126 178 16 21 2 13 -21 -11z"/>
<path d="M5426 7005 c-9 -26 -7 -32 5 -12 6 10 9 21 6 23 -2 3 -7 -2 -11 -11z"/>
<path d="M7747 6955 c-11 -7 -26 -11 -35 -8 -10 3 -13 1 -7 -4 6 -4 13 -12 16
-16 3 -4 16 4 29 18 26 28 25 32 -3 10z"/>
<path d="M5371 6872 c-16 -29 -41 -105 -40 -122 0 -8 9 11 19 42 10 31 24 66
30 77 6 12 8 21 6 21 -3 0 -10 -8 -15 -18z"/>
<path d="M5970 6780 c-6 -11 -8 -20 -6 -20 3 0 10 9 16 20 6 11 8 20 6 20 -3
0 -10 -9 -16 -20z"/>
<path d="M5941 6714 c0 -11 3 -14 6 -6 3 7 2 16 -1 19 -3 4 -6 -2 -5 -13z"/>
<path d="M5311 6694 c0 -11 3 -14 6 -6 3 7 2 16 -1 19 -3 4 -6 -2 -5 -13z"/>
<path d="M5912 6635 c-7 -14 -12 -31 -12 -38 1 -7 7 3 16 22 17 39 13 54 -4
16z"/>
<path d="M5291 6614 c0 -11 3 -14 6 -6 3 7 2 16 -1 19 -3 4 -6 -2 -5 -13z"/>
<path d="M7635 6585 c43 -13 44 -15 31 -90 -4 -27 -3 -33 3 -20 4 11 12 39 15
62 l8 42 -39 10 c-52 15 -67 12 -18 -4z"/>
<path d="M5281 6574 c0 -11 3 -14 6 -6 3 7 2 16 -1 19 -3 4 -6 -2 -5 -13z"/>
<path d="M5891 6564 c0 -11 3 -14 6 -6 3 7 2 16 -1 19 -3 4 -6 -2 -5 -13z"/>
<path d="M7530 6519 c-6 -24 -22 -84 -35 -134 -13 -49 -49 -189 -80 -310 -31
-121 -69 -270 -86 -332 -16 -61 -29 -115 -28 -120 0 -9 19 35 24 57 2 8 10 41
20 72 9 31 18 70 21 85 3 15 9 42 14 58 5 17 34 129 65 250 31 121 60 234 65
250 16 52 39 159 35 163 -2 2 -9 -16 -15 -39z"/>
<path d="M5269 6520 c-7 -35 -4 -48 7 -38 3 4 4 21 2 40 l-3 33 -6 -35z"/>
<path d="M5867 6484 c-9 -30 -17 -67 -16 -82 1 -15 10 9 20 52 23 93 20 109
-4 30z"/>
<path d="M7093 6435 c15 -17 27 -35 27 -39 0 -5 7 -14 16 -20 13 -10 8 -19
-40 -66 -31 -30 -56 -59 -56 -64 0 -6 27 16 60 49 33 33 60 62 60 65 0 4 -21
29 -47 56 -27 28 -36 36 -20 19z"/>
<path d="M7869 6423 l-34 -37 34 28 c18 15 37 26 42 24 5 -2 46 -39 91 -83 46
-44 124 -119 174 -165 50 -47 27 -22 -50 54 -78 77 -159 157 -182 178 l-41 37
-34 -36z"/>
<path d="M5245 6363 c-3 -43 -9 -89 -11 -103 -4 -19 -3 -21 4 -10 11 16 28
190 19 190 -2 0 -8 -35 -12 -77z"/>
<path d="M6824 6236 c-119 -116 -205 -208 -200 -212 5 -5 11 -3 13 4 3 7 11
18 18 25 44 41 367 362 376 374 37 44 -22 -10 -207 -191z"/>
<path d="M7817 6366 c-5 -12 257 -281 308 -315 11 -8 -50 54 -135 138 -112
109 -154 157 -152 171 4 23 -13 27 -21 6z"/>
<path d="M5843 6335 c0 -22 2 -30 4 -17 2 12 2 30 0 40 -3 9 -5 -1 -4 -23z"/>
<path d="M7621 6324 c0 -11 3 -14 6 -6 3 7 2 16 -1 19 -3 4 -6 -2 -5 -13z"/>
<path d="M7605 6273 c-5 -15 -9 -33 -10 -39 -2 -6 -6 -27 -10 -45 -12 -57 2
-28 20 40 16 61 15 101 0 44z"/>
<path d="M5832 6230 c0 -19 2 -27 5 -17 2 9 2 25 0 35 -3 9 -5 1 -5 -18z"/>
<path d="M6925 6138 l-100 -103 103 100 c95 93 107 105 99 105 -1 0 -47 -46
-102 -102z"/>
<path d="M5231 6184 c0 -11 3 -14 6 -6 3 7 2 16 -1 19 -3 4 -6 -2 -5 -13z"/>
<path d="M5824 6025 c0 -93 2 -133 3 -88 2 45 2 122 0 170 -1 48 -3 12 -3 -82z"/>
<path d="M7566 6125 c-3 -9 -6 -22 -5 -28 0 -7 5 -1 10 12 5 13 8 26 5 28 -2
2 -6 -3 -10 -12z"/>
<path d="M7536 6009 c-10 -39 -16 -72 -14 -75 2 -2 12 28 22 67 10 38 16 72
14 75 -3 2 -13 -27 -22 -67z"/>
<path d="M7970 5860 l-175 -169 50 -51 c27 -27 53 -50 59 -50 5 0 -15 22 -44
49 -29 27 -48 51 -42 55 6 3 12 3 15 -1 2 -5 3 -3 1 3 -1 7 52 66 119 132 146
144 203 202 196 202 -2 0 -83 -76 -179 -170z"/>
<path d="M6821 6008 c3 -2 40 -37 84 -78 l80 -75 -75 78 c-41 42 -79 77 -84
77 -5 0 -7 -1 -5 -2z"/>
<path d="M6680 5965 c19 -19 36 -35 39 -35 3 0 -10 16 -29 35 -19 19 -36 35
-39 35 -3 0 10 -16 29 -35z"/>
<path d="M8280 5975 c-13 -14 -19 -25 -13 -25 6 0 18 11 27 25 9 14 15 25 13
25 -2 0 -14 -11 -27 -25z"/>
<path d="M8115 5807 c-66 -66 -95 -98 -65 -71 67 60 192 186 188 190 -2 1 -57
-52 -123 -119z"/>
<path d="M6885 5762 c87 -89 161 -159 164 -156 5 4 -207 216 -284 283 -22 19
32 -38 120 -127z"/>
<path d="M7502 5868 c-7 -28 -11 -53 -8 -55 2 -2 9 19 16 47 7 28 10 53 8 55
-3 3 -10 -18 -16 -47z"/>
<path d="M5233 5830 c0 -36 2 -50 4 -32 2 17 2 47 0 65 -2 17 -4 3 -4 -33z"/>
<path d="M7027 5809 c18 -18 35 -30 38 -27 3 3 -11 18 -32 33 l-38 28 32 -34z"/>
<path d="M5832 5790 c0 -19 2 -27 5 -17 2 9 2 25 0 35 -3 9 -5 1 -5 -18z"/>
<path d="M7481 5784 c0 -11 3 -14 6 -6 3 7 2 16 -1 19 -3 4 -6 -2 -5 -13z"/>
<path d="M7080 5760 c0 -5 5 -10 11 -10 5 0 7 5 4 10 -3 6 -8 10 -11 10 -2 0
-4 -4 -4 -10z"/>
<path d="M7465 5730 c-4 -17 -5 -34 -2 -36 2 -3 7 10 11 27 3 18 4 34 2 36 -2
3 -7 -10 -11 -27z"/>
<path d="M5243 5695 c0 -27 2 -38 4 -22 2 15 2 37 0 50 -2 12 -4 0 -4 -28z"/>
<path d="M7100 5737 c0 -2 15 -14 33 -27 20 -15 27 -17 18 -6 -13 16 -51 41
-51 33z"/>
<path d="M5845 5685 c5 -58 14 -108 21 -114 8 -8 3 33 -11 99 -14 61 -14 62
-10 15z"/>
<path d="M7107 5635 c-27 -25 -45 -45 -40 -45 5 0 29 20 53 45 56 58 49 57
-13 0z"/>
<path d="M7443 5645 c-6 -19 -8 -35 -3 -35 8 0 23 60 17 67 -2 1 -8 -13 -14
-32z"/>
<path d="M7949 5643 l-34 -38 38 34 c34 33 42 41 34 41 -2 0 -19 -17 -38 -37z"/>
<path d="M5252 5615 c0 -16 2 -22 5 -12 2 9 2 23 0 30 -3 6 -5 -1 -5 -18z"/>
<path d="M7278 5550 c-8 -36 -12 -69 -9 -74 5 -11 32 114 27 129 -1 6 -10 -19
-18 -55z"/>
<path d="M7425 5570 c-4 -17 -5 -34 -2 -36 2 -3 7 10 11 27 3 18 4 34 2 36 -2
3 -7 -10 -11 -27z"/>
<path d="M5267 5525 c3 -27 7 -52 9 -54 7 -8 2 54 -6 79 -6 17 -7 9 -3 -25z"/>
<path d="M5871 5544 c0 -11 3 -14 6 -6 3 7 2 16 -1 19 -3 4 -6 -2 -5 -13z"/>
<path d="M5881 5504 c0 -11 3 -14 6 -6 3 7 2 16 -1 19 -3 4 -6 -2 -5 -13z"/>
<path d="M5891 5470 c0 -8 4 -24 9 -35 5 -13 9 -14 9 -5 0 8 -4 24 -9 35 -5
13 -9 14 -9 5z"/>
<path d="M7305 5460 c27 -12 43 -12 25 0 -8 5 -22 9 -30 9 -10 0 -8 -3 5 -9z"/>
<path d="M5281 5434 c0 -11 3 -14 6 -6 3 7 2 16 -1 19 -3 4 -6 -2 -5 -13z"/>
<path d="M5915 5390 c11 -38 47 -121 51 -117 4 3 -45 129 -53 137 -3 3 -2 -6
2 -20z"/>
<path d="M5301 5370 c0 -8 4 -24 9 -35 l9 -20 0 20 c0 11 -4 27 -9 35 -9 13
-10 13 -9 0z"/>
<path d="M5331 5264 c0 -11 3 -14 6 -6 3 7 2 16 -1 19 -3 4 -6 -2 -5 -13z"/>
<path d="M5346 5220 c3 -14 10 -32 15 -40 7 -13 8 -13 8 0 0 8 -6 26 -15 40
l-15 25 7 -25z"/>
<path d="M5990 5213 c0 -5 10 -19 21 -33 l20 -25 -16 33 c-15 30 -25 41 -25
25z"/>
<path d="M6047 5119 c10 -17 27 -38 37 -47 11 -9 5 4 -14 31 -38 53 -50 62
-23 16z"/>
<path d="M5381 5132 c-1 -16 101 -230 123 -257 9 -11 -5 23 -32 75 -26 52 -58
118 -69 145 -12 28 -22 44 -22 37z"/>
<path d="M7695 5080 c-21 -22 -35 -40 -30 -40 9 0 81 80 73 80 -2 0 -22 -18
-43 -40z"/>
<path d="M6110 5035 c56 -75 241 -235 272 -235 6 0 -18 19 -53 42 -35 23 -102
81 -149 128 -47 47 -78 76 -70 65z"/>
<path d="M7600 4985 c-24 -25 -42 -45 -39 -45 3 0 25 20 49 45 24 25 42 45 39
45 -3 0 -25 -20 -49 -45z"/>
<path d="M7840 5010 c0 -5 10 -15 23 -21 22 -12 22 -12 3 10 -21 23 -26 26
-26 11z"/>
<path d="M7930 4928 c24 -27 45 -48 47 -48 8 0 0 9 -44 50 l-48 45 45 -47z"/>
<path d="M7495 4899 c-27 -22 -74 -54 -102 -71 -58 -33 -72 -48 -21 -22 48 25
141 90 163 114 27 29 16 24 -40 -21z"/>
<path d="M8030 4828 c24 -27 45 -48 47 -48 8 0 0 9 -44 50 l-48 45 45 -47z"/>
<path d="M5528 4835 c6 -11 21 -31 33 -45 l21 -25 -19 33 c-10 19 -24 39 -32
45 -12 10 -12 9 -3 -8z"/>
<path d="M7293 4778 c-13 -6 -23 -15 -23 -20 0 -7 31 8 59 29 10 7 -16 1 -36
-9z"/>
<path d="M6470 4755 c14 -8 30 -14 35 -14 6 0 -1 6 -15 14 -14 8 -29 14 -35
14 -5 0 1 -6 15 -14z"/>
<path d="M5616 4715 c52 -68 116 -138 196 -211 68 -63 188 -150 188 -137 -1 5
-29 26 -63 48 -60 39 -230 200 -316 300 l-43 50 38 -50z"/>
<path d="M6545 4725 c17 -8 39 -14 50 -14 l20 0 -20 8 c-11 4 -33 11 -50 14
l-30 6 30 -14z"/>
<path d="M7155 4725 c-40 -14 -40 -14 -5 -9 19 4 39 10 45 15 11 11 10 11 -40
-6z"/>
<path d="M8094 4698 l-19 -23 23 19 c12 11 22 21 22 23 0 8 -8 2 -26 -19z"/>
<path d="M6638 4703 c7 -3 16 -2 19 1 4 3 -2 6 -13 5 -11 0 -14 -3 -6 -6z"/>
<path d="M7078 4703 c7 -3 16 -2 19 1 4 3 -2 6 -13 5 -11 0 -14 -3 -6 -6z"/>
<path d="M6688 4693 c6 -2 18 -2 25 0 6 3 1 5 -13 5 -14 0 -19 -2 -12 -5z"/>
<path d="M6975 4693 c-27 -2 -53 -7 -57 -11 -4 -4 19 -5 52 -2 32 3 62 9 66
13 4 4 3 6 -2 5 -5 -1 -31 -3 -59 -5z"/>
<path d="M6740 4686 c0 -2 14 -6 30 -8 17 -3 30 -1 30 4 0 4 -13 8 -30 8 -16
0 -30 -2 -30 -4z"/>
<path d="M6818 4683 c7 -3 16 -2 19 1 4 3 -2 6 -13 5 -11 0 -14 -3 -6 -6z"/>
<path d="M8029 4634 c-18 -20 -25 -31 -14 -24 18 11 61 60 52 60 -1 0 -19 -16
-38 -36z"/>
<path d="M7935 4544 c-27 -25 -36 -36 -20 -25 49 34 91 71 80 71 -5 0 -32 -21
-60 -46z"/>
<path d="M7862 4483 c-7 -3 -30 -21 -50 -40 l-37 -36 45 33 c68 50 73 56 42
43z"/>
<path d="M7717 4381 c-41 -26 -46 -36 -10 -17 17 9 35 20 38 26 8 13 6 12 -28
-9z"/>
<path d="M6010 4356 c0 -3 9 -10 20 -16 11 -6 20 -8 20 -6 0 3 -9 10 -20 16
-11 6 -20 8 -20 6z"/>
<path d="M6094 4306 c11 -9 24 -16 30 -16 12 0 7 5 -24 19 -24 11 -24 11 -6
-3z"/>
<path d="M7595 4310 c-3 -6 1 -7 9 -4 18 7 21 14 7 14 -6 0 -13 -4 -16 -10z"/>
<path d="M6160 4275 c0 -8 73 -36 78 -30 3 3 3 5 0 5 -3 0 -22 7 -42 15 -20 8
-36 13 -36 10z"/>
<path d="M7465 4249 c-22 -10 -29 -16 -15 -13 28 7 80 33 65 33 -5 0 -28 -9
-50 -20z"/>
<path d="M6290 4222 c8 -5 26 -13 40 -16 17 -5 20 -4 10 2 -8 5 -26 13 -40 16
-17 5 -20 4 -10 -2z"/>
<path d="M7355 4209 c-27 -10 -37 -17 -21 -14 31 7 97 33 81 33 -5 0 -32 -8
-60 -19z"/>
<path d="M6368 4193 c7 -3 16 -2 19 1 4 3 -2 6 -13 5 -11 0 -14 -3 -6 -6z"/>
<path d="M6415 4180 c11 -5 27 -9 35 -9 9 0 8 4 -5 9 -11 5 -27 9 -35 9 -9 0
-8 -4 5 -9z"/>
<path d="M6530 4154 c36 -7 79 -13 95 -12 17 0 -4 6 -45 13 -97 17 -134 17
-50 -1z"/>
<path d="M7150 4160 l-25 -8 25 0 c14 0 34 3 45 8 l20 9 -20 -1 c-11 0 -31 -4
-45 -8z"/>
<path d="M6665 4140 c-3 -5 1 -10 10 -10 9 0 13 5 10 10 -3 6 -8 10 -10 10 -2
0 -7 -4 -10 -10z"/>
<path d="M7073 4143 c9 -2 25 -2 35 0 9 3 1 5 -18 5 -19 0 -27 -2 -17 -5z"/>
<path d="M6818 4123 c23 -2 59 -2 80 0 20 2 1 4 -43 4 -44 0 -61 -2 -37 -4z"/>
<path d="M4386 3400 c-14 -22 -26 -44 -26 -50 0 -5 17 -10 38 -10 31 0 45 7
80 43 23 24 39 46 36 50 -4 4 -28 7 -54 7 -44 0 -49 -3 -74 -40z"/>
<path d="M1670 3013 l0 -273 50 0 50 0 2 184 3 184 123 -184 122 -184 45 0 45
0 0 269 c0 149 -3 272 -7 274 -5 2 -27 2 -50 -1 l-43 -4 -2 -171 -3 -171 -118
177 -118 178 -49 -3 -50 -3 0 -272z"/>
<path d="M2675 3271 c-55 -25 -104 -76 -133 -139 -21 -47 -24 -65 -20 -136 5
-89 21 -131 72 -184 39 -42 73 -60 134 -72 123 -23 251 52 277 163 7 27 7 27
-44 27 -46 0 -52 -3 -66 -30 -35 -68 -131 -91 -196 -47 -19 12 -44 42 -57 67
-19 37 -23 56 -19 107 8 102 56 161 139 170 56 7 102 -16 130 -63 19 -33 23
-35 67 -32 54 4 56 16 13 88 -54 89 -195 128 -297 81z"/>
<path d="M3265 3268 c-113 -58 -167 -174 -145 -311 13 -84 53 -144 120 -184
48 -29 63 -33 127 -33 84 0 124 14 178 61 56 50 85 118 85 205 0 125 -51 217
-144 260 -67 31 -163 32 -221 2z m193 -95 c90 -65 94 -233 8 -312 -39 -37
-128 -41 -176 -9 -49 33 -75 89 -74 164 1 74 35 142 86 168 42 21 120 16 156
-11z"/>
<path d="M4365 3280 c-5 -8 -185 -499 -192 -523 -5 -16 0 -18 48 -15 l53 3 24
63 24 62 103 0 103 0 22 -65 22 -65 55 0 c48 0 55 2 50 18 -15 49 -191 508
-197 516 -9 9 -110 14 -115 6z m81 -172 c9 -29 25 -74 35 -100 l19 -48 -75 0
-74 0 29 84 c17 47 30 92 30 100 0 33 19 14 36 -36z"/>
<path d="M4850 3268 c-59 -31 -82 -65 -88 -131 -4 -49 -2 -57 27 -90 32 -36
67 -52 174 -82 60 -16 97 -43 97 -70 0 -9 -11 -27 -25 -40 -19 -20 -34 -25
-74 -25 -68 0 -101 14 -114 51 -11 28 -15 30 -57 27 -44 -3 -45 -4 -43 -37 5
-110 191 -174 320 -109 60 29 85 64 91 126 9 93 -44 146 -178 177 -90 21 -120
38 -120 68 0 43 36 67 98 67 29 0 46 -7 66 -26 14 -15 26 -31 26 -35 0 -5 23
-9 50 -9 53 0 56 3 39 47 -37 99 -183 145 -289 91z"/>
<path d="M5643 3265 c-55 -25 -106 -84 -130 -148 -16 -45 -16 -167 2 -216 35
-101 125 -163 238 -164 71 0 118 17 168 61 32 28 78 107 68 116 -2 2 -24 7
-49 10 -44 7 -45 6 -69 -33 -30 -49 -66 -65 -132 -59 -87 9 -139 78 -139 188
0 54 33 125 71 153 38 27 99 33 139 12 38 -20 69 -53 70 -74 0 -10 11 -12 45
-8 26 2 48 7 51 10 13 12 -19 75 -54 110 -74 72 -181 88 -279 42z"/>
<path d="M6251 3272 c-6 -10 -50 -126 -100 -258 -49 -131 -92 -247 -96 -256
-6 -16 -1 -18 43 -18 56 0 62 5 87 78 l19 52 106 0 106 0 20 -62 20 -63 57 -3
57 -3 -28 78 c-16 43 -62 167 -102 276 l-73 197 -53 0 c-42 0 -55 -4 -63 -18z
m98 -205 c17 -48 31 -92 31 -98 0 -5 -31 -9 -70 -9 -38 0 -70 3 -70 8 0 20 66
199 71 194 4 -4 20 -47 38 -95z"/>
<path d="M7983 3282 l-43 -3 0 -270 0 -269 50 0 50 0 0 187 0 187 123 -184
123 -185 47 -3 47 -3 0 270 0 271 -34 0 c-19 0 -41 3 -50 6 -14 5 -16 -14 -16
-172 l0 -179 -20 25 c-11 14 -64 91 -117 172 -54 81 -102 148 -108 150 -5 2
-29 2 -52 0z"/>
<path d="M8540 3013 l0 -273 45 0 45 0 0 269 0 269 -45 4 -45 3 0 -272z"/>
<path d="M2280 3010 l0 -270 50 0 50 0 0 270 0 270 -50 0 -50 0 0 -270z"/>
<path d="M3750 3010 l0 -270 170 0 170 0 0 50 0 50 -120 0 -120 0 0 220 0 220
-50 0 -50 0 0 -270z"/>
<path d="M6680 3011 l0 -271 50 0 50 0 0 105 0 105 43 0 42 -1 60 -104 60
-105 58 0 c31 0 57 2 57 5 0 2 -29 51 -63 107 l-64 103 31 20 c16 11 41 36 54
55 20 29 23 44 20 93 -5 61 -23 95 -72 131 -24 19 -44 21 -177 24 l-149 3 0
-270z m271 161 c32 -27 29 -89 -6 -119 -22 -19 -38 -23 -96 -23 l-69 0 0 80 0
80 74 0 c57 0 79 -4 97 -18z"/>
<path d="M7220 3010 l0 -270 165 0 165 0 0 50 0 50 -115 0 -115 0 0 220 0 220
-50 0 -50 0 0 -270z"/>
<path d="M7680 3010 l0 -270 50 0 50 0 0 209 c0 114 -3 236 -6 270 l-7 61 -43
0 -44 0 0 -270z"/>
</g>
</svg>
